  <svg
    width="24"
    height="24"
    viewBox="0 0 24 24"
    xmlns="http://www.w3.org/2000/svg"
  >
    <path
      fill-rule="evenodd"
      clip-rule="evenodd"
      d="M12 3C7.02944 3 3 7.02944 3 12C3 16.9706 7.02944 21 12 21C16.9706 21 21 16.9706 21 12C21 7.02944 16.9706 3 12 3ZM4.3 12C4.3 7.74741 7.74741 4.3 12 4.3C16.2526 4.3 19.7 7.74741 19.7 12C19.7 16.2526 16.2526 19.7 12 19.7C7.74741 19.7 4.3 16.2526 4.3 12Z"
      fill="#0142D3"
    ></path>
    <path
      d="M10.6482 16.4222C10.4682 16.4222 10.2982 16.3522 10.1682 16.2122C9.92817 15.9422 9.94817 15.5322 10.2082 15.2922L13.7013 12.146L10.2121 9.12817C9.94207 8.88817 9.93207 8.47818 10.1721 8.20817C10.4121 7.94818 10.8221 7.92817 11.0921 8.16817L15.0713 11.626C15.3813 11.906 15.3813 12.386 15.0713 12.666L11.0882 16.2522C10.9582 16.3722 10.8082 16.4222 10.6482 16.4222Z"
      fill="#0142D3"
    ></path>
  </svg>