  <svg
    width="16"
    height="18"
    viewBox="0 0 16 18"
    fill="none"
    xmlns="http://www.w3.org/2000/svg"
  >
    <path
      fill-rule="evenodd"
      clip-rule="evenodd"
      d="M12.375 0C14.239 0 15.75 1.51104 15.75 3.375V14.625C15.75 16.489 14.239 18 12.375 18H3.375C1.51104 18 0 16.489 0 14.625V3.375C0 1.51104 1.51104 0 3.375 0H12.375ZM8.29643 5.1159C8.29643 5.51976 7.96904 5.84715 7.56518 5.84715L4.52299 5.84714C4.11913 5.84714 3.79174 5.51975 3.79174 5.11589C3.79174 4.71203 4.11913 4.38464 4.52299 4.38464L7.56518 4.38465C7.96904 4.38465 8.29643 4.71204 8.29643 5.1159ZM11.2256 9.79576C11.6294 9.79576 11.9568 9.46837 11.9568 9.06452C11.9568 8.66066 11.6294 8.33327 11.2256 8.33327L4.52299 8.33327C4.11913 8.33327 3.79174 8.66066 3.79174 9.06452C3.79174 9.46838 4.11913 9.79577 4.52299 9.79577L11.2256 9.79576ZM11.9568 13.0132C11.9568 13.417 11.6294 13.7444 11.2256 13.7444L4.52299 13.7444C4.11913 13.7444 3.79174 13.417 3.79174 13.0132C3.79174 12.6093 4.11913 12.2819 4.52299 12.2819L11.2256 12.2819C11.6294 12.2819 11.9568 12.6093 11.9568 13.0132Z"
      fill="#0142D3"
    ></path>
  </svg>