  <svg
    width="50"
    height="50"
    viewBox="0 0 16 20"
    fill="none"
    xmlns="http://www.w3.org/2000/svg"
  >
    <path
      fill-rule="evenodd"
      clip-rule="evenodd"
      d="M3.3922 4.96802C3.09129 2.32002 5.16261 0 7.82765 0C10.4927 0 12.564 2.32002 12.2631 4.96803L12.0011 7.27398C11.7599 9.39657 9.9639 11 7.82765 11C5.69141 11 3.89544 9.39656 3.65424 7.27398L3.3922 4.96802Z"
      fill="#0142D3"
    ></path>
    <path
      fill-rule="evenodd"
      clip-rule="evenodd"
      d="M0.116894 16.6984C0.726944 13.9532 3.16182 12 5.97402 12H9.68129C12.4935 12 14.9284 13.9532 15.5384 16.6984L15.6384 17.1481C15.7355 17.5853 15.4028 18 14.955 18H0.700284C0.252461 18 -0.0801933 17.5853 0.0169532 17.1481L0.116894 16.6984Z"
      fill="#0142D3"
    ></path>
  </svg>