  <svg
    width="20"
    height="18"
    viewBox="0 0 20 18"
    fill="none"
    xmlns="http://www.w3.org/2000/svg"
  >
    <path
      d="M8.56178 0.392503C9.08511 -0.130835 9.93361 -0.130834 10.4569 0.392503L18.7869 8.72245C19.0668 8.96449 19.0976 9.38762 18.8555 9.66755C18.6135 9.94748 18.1903 9.9782 17.9104 9.73617L16.7252 8.55097V16.6599C16.7252 17.4 16.1252 18 15.3851 18H12.2926C11.8941 18 11.571 17.6769 11.571 17.2784V12.1242C11.571 11.3841 10.9711 10.7841 10.2309 10.7841H8.78778C8.04766 10.7841 7.44768 11.3841 7.44768 12.1242V17.2784C7.44768 17.6769 7.12462 18 6.7261 18H3.63359C2.89347 18 2.2935 17.4 2.2935 16.6599V8.55097L1.1083 9.73617C0.828369 9.9782 0.405234 9.94748 0.163199 9.66755C-0.0788356 9.38762 -0.0481159 8.96449 0.231813 8.72245L3.32433 5.62994L8.56178 0.392503Z"
      fill="#0142D3"
    ></path>
  </svg>