<svg
  width="83"
  height="29"
  viewBox="0 0 83 29"
  fill="none"
  xmlns="http://www.w3.org/2000/svg"
>
  <path
    fill-rule="evenodd"
    clip-rule="evenodd"
    d="M23.3285 3.92009H4.14908L5.53289 0H24.7123L23.3285 3.92009ZM22.6378 5.87891H3.45802L2.07422 9.79899H21.254L22.6378 5.87891ZM20.5632 11.7617H1.3838L0 15.6818H19.1794L20.5632 11.7617Z"
    fill="#00A5FF"
  ></path>
  <path
    fill-rule="evenodd"
    clip-rule="evenodd"
    d="M70.3363 24.2424H73.8238C75.1466 24.2424 75.9484 23.9323 76.5096 23.2349C76.7903 22.8859 77.1911 22.2659 77.1911 21.1033C77.1911 19.9407 76.7903 19.1268 75.9886 18.5456C75.5077 18.1966 74.866 18.003 73.7836 18.003H70.3363V24.2424ZM65.7261 28.0016V5.60156H80.7989L79.4761 9.36102H70.3362V14.3213H74.0642C77.0709 14.3213 78.6341 15.019 79.7165 15.9103C80.5584 16.608 82.0015 18.1581 82.0015 21.2195C82.0015 24.2424 80.5182 25.9088 79.2755 26.7613C77.8324 27.7303 76.3093 28.0016 73.2227 28.0016H65.7261ZM52.3774 28.0016V9.36102H45.683V5.60156H64.2831L62.9603 9.36102H57.0274V28.0016H52.3774ZM33.8172 14.5559H36.423C37.2244 14.5559 37.6252 14.5559 38.0264 14.4393C39.1088 14.1295 39.79 13.1994 39.79 11.9205C39.79 10.4089 39.0686 9.7504 38.0264 9.44024C37.5854 9.32401 37.1443 9.28516 36.2626 9.28516H33.8172V14.5559ZM33.8555 18.4294V24.3198H37.0624C38.0245 24.3198 38.9063 24.2425 39.5476 23.661C40.1889 23.0799 40.4696 22.3436 40.4696 21.3746C40.4696 20.6384 40.2693 19.9407 39.8684 19.437C39.1869 18.623 38.345 18.4294 36.902 18.4294H33.8555ZM41.2735 16.0653V16.1427C42.1552 16.4529 42.9968 16.9955 43.4379 17.3442C44.8009 18.4294 45.4023 19.8633 45.4023 21.7233C45.4023 24.7851 43.7185 26.994 40.9526 27.6914C40.1107 27.9239 39.229 28.0016 37.5853 28.0016H29.207V5.60156H36.6232C38.1466 5.60156 39.1888 5.67927 40.1107 5.91172C42.7965 6.60942 44.5604 8.39201 44.5604 11.221C44.5604 12.7326 43.9991 14.0114 43.0772 14.8639C42.6763 15.2514 42.115 15.7167 41.2735 16.0653Z"
    fill="white"
  ></path>
</svg>