<svg width="17" height="14" viewBox="0 0 17 14" fill="none" xmlns="http://www.w3.org/2000/svg">
<path d="M8.23529 3.29412H1.64706C1.21023 3.29412 0.791296 3.46765 0.482412 3.77653C0.173529 4.08541 0 4.50435 0 4.94118V8.23529C0 8.67212 0.173529 9.09106 0.482412 9.39994C0.791296 9.70882 1.21023 9.88235 1.64706 9.88235H2.47059V13.1765C2.47059 13.3949 2.55735 13.6044 2.71179 13.7588C2.86624 13.9132 3.0757 14 3.29412 14H4.94118C5.15959 14 5.36906 13.9132 5.5235 13.7588C5.67794 13.6044 5.76471 13.3949 5.76471 13.1765V9.88235H8.23529L12.3529 13.1765V0L8.23529 3.29412ZM16.0588 6.58824C16.0588 7.99647 15.2682 9.27294 14 9.88235V3.29412C15.26 3.91176 16.0588 5.18824 16.0588 6.58824Z" fill="#B0BABF"/>
</svg>
