<svg width="14" height="15" viewBox="0 0 14 15" fill="none" xmlns="http://www.w3.org/2000/svg">
<path d="M14 10.2223V11.2778C14 11.9109 13.7037 12.4522 13.2922 12.8777C12.8854 13.2992 12.3332 13.643 11.7118 13.9152C10.4658 14.4597 8.79978 14.7778 7 14.7778C5.20022 14.7778 3.53422 14.4604 2.28822 13.9152C1.66678 13.643 1.11456 13.2992 0.707778 12.8777C0.330556 12.4888 0.0505555 12.0003 0.00622214 11.4341L0 11.2778V10.2223C0.361667 10.4277 0.748222 10.6097 1.162 10.7629C2.74089 11.347 4.80589 11.6729 7 11.6729C9.19411 11.6729 11.2591 11.347 12.838 10.7629C13.1483 10.6478 13.4431 10.5171 13.7239 10.3717L14 10.2223ZM0 5.94455C0.361667 6.14989 0.748222 6.33189 1.162 6.48511C2.74089 7.06922 4.80589 7.39511 7 7.39511C9.19411 7.39511 11.2591 7.06922 12.838 6.48511C13.2394 6.33694 13.6281 6.15615 14 5.94455V8.35956C13.4835 8.75821 12.9098 9.07654 12.2982 9.30378C10.9332 9.80933 9.05956 10.1181 7 10.1181C4.94122 10.1181 3.06756 9.80933 1.70178 9.30378C1.0902 9.07654 0.516469 8.75821 0 8.35956V5.94455ZM7 0C8.79978 0 10.4658 0.317333 11.7118 0.862556C12.3332 1.13478 12.8854 1.47856 13.2922 1.90011C13.6694 2.289 13.9494 2.77744 13.9938 3.34367L14 3.5V4.08178C13.4835 4.48045 12.9098 4.79878 12.2982 5.026C10.9332 5.53156 9.05956 5.84033 7 5.84033C4.94122 5.84033 3.06756 5.53156 1.70178 5.026C1.17587 4.83093 0.677757 4.56788 0.220111 4.24356L0 4.08178V3.5C0 2.86689 0.296333 2.32556 0.707778 1.90011C1.11456 1.47856 1.66678 1.13478 2.28822 0.862556C3.53422 0.318111 5.20022 0 7 0Z" fill="#B0BABF"/>
</svg>
