<svg width="14" height="16" viewBox="0 0 14 16" fill="none" xmlns="http://www.w3.org/2000/svg">
<path d="M6.005 0.266608C6.30752 0.0919501 6.65068 0 7 0C7.34932 0 7.69248 0.0919501 7.995 0.266608L13.005 3.15847C13.3075 3.33312 13.5587 3.58433 13.7334 3.88683C13.908 4.18934 14 4.53249 14 4.8818V10.6671C14 11.0164 13.908 11.3596 13.7334 11.6621C13.5587 11.9646 13.3075 12.2158 13.005 12.3904L7.995 15.2831C7.69248 15.4578 7.34932 15.5497 7 15.5497C6.65068 15.5497 6.30752 15.4578 6.005 15.2831L0.994996 12.3904C0.692487 12.2158 0.441279 11.9646 0.266621 11.6621C0.0919634 11.3596 9.01344e-06 11.0164 1.39631e-07 10.6671V4.8826C-0.000130746 4.53315 0.0917573 4.18984 0.266422 3.88718C0.441087 3.58452 0.69237 3.33319 0.994996 3.15847L6.005 0.266608ZM7 5.38726C6.36666 5.38726 5.75927 5.63885 5.31143 6.08668C4.8636 6.53452 4.61201 7.14192 4.61201 7.77525C4.61201 8.40858 4.8636 9.01598 5.31143 9.46382C5.75927 9.91165 6.36666 10.1632 7 10.1632C7.63333 10.1632 8.24073 9.91165 8.68856 9.46382C9.1364 9.01598 9.38799 8.40858 9.38799 7.77525C9.38799 7.14192 9.1364 6.53452 8.68856 6.08668C8.24073 5.63885 7.63333 5.38726 7 5.38726Z" fill="#B0BABF"/>
</svg>
