<svg width="14" height="16" viewBox="0 0 14 16" fill="none" xmlns="http://www.w3.org/2000/svg">
<path d="M8 15C8.00009 15.1703 8.04372 15.3379 8.12674 15.4867C8.20977 15.6355 8.32944 15.7606 8.47439 15.8501C8.61935 15.9397 8.78479 15.9907 8.95501 15.9984C9.12523 16.0061 9.29458 15.9701 9.447 15.894L13.447 13.894C13.6131 13.811 13.7528 13.6834 13.8504 13.5255C13.9481 13.3676 13.9999 13.1856 14 13V7.23595C13.9999 7.06556 13.9563 6.89802 13.8733 6.74923C13.7902 6.60043 13.6706 6.47532 13.5256 6.38576C13.3806 6.2962 13.2152 6.24517 13.045 6.2375C12.8748 6.22983 12.7054 6.26579 12.553 6.34195L8.553 8.34195C8.38692 8.42494 8.24722 8.55253 8.14955 8.71043C8.05188 8.86832 8.0001 9.05029 8 9.23595V15ZM12.211 4.27595C12.3769 4.19282 12.5164 4.06516 12.6138 3.90728C12.7113 3.74939 12.7629 3.5675 12.7629 3.38195C12.7629 3.1964 12.7113 3.01451 12.6138 2.85663C12.5164 2.69874 12.3769 2.57109 12.211 2.48795L7.447 0.105954C7.3082 0.0365957 7.15516 0.000488281 7 0.000488281C6.84484 0.000488281 6.6918 0.0365957 6.553 0.105954L1.789 2.48795C1.62312 2.57109 1.48364 2.69874 1.38617 2.85663C1.28869 3.01451 1.23707 3.1964 1.23707 3.38195C1.23707 3.5675 1.28869 3.74939 1.38617 3.90728C1.48364 4.06516 1.62312 4.19282 1.789 4.27595L6.553 6.65795C6.6918 6.72731 6.84484 6.76342 7 6.76342C7.15516 6.76342 7.3082 6.72731 7.447 6.65795L12.211 4.27595ZM1.447 6.34195C1.29458 6.26579 1.12522 6.22983 0.955006 6.2375C0.784787 6.24517 0.619351 6.2962 0.474394 6.38576C0.329438 6.47532 0.209769 6.60043 0.126744 6.74923C0.0437189 6.89802 9.09694e-05 7.06556 0 7.23595V13C9.91486e-05 13.1856 0.0518831 13.3676 0.149552 13.5255C0.247222 13.6834 0.386919 13.811 0.553 13.894L4.553 15.894C4.70542 15.9701 4.87477 16.0061 5.04499 15.9984C5.21521 15.9907 5.38065 15.9397 5.52561 15.8501C5.67056 15.7606 5.79023 15.6355 5.87326 15.4867C5.95628 15.3379 5.99991 15.1703 6 15V9.23595C5.9999 9.05029 5.94812 8.86832 5.85045 8.71043C5.75278 8.55253 5.61308 8.42494 5.447 8.34195L1.447 6.34195Z" fill="#B0BABF"/>
</svg>
