<svg width="15" height="15" viewBox="0 0 15 15" fill="none" xmlns="http://www.w3.org/2000/svg">
<path fill-rule="evenodd" clip-rule="evenodd" d="M7.5 0C5.51088 2.96403e-08 3.60322 0.790176 2.1967 2.1967C0.790176 3.60322 0 5.51088 0 7.5C0 9.48912 0.790176 11.3968 2.1967 12.8033C3.60322 14.2098 5.51088 15 7.5 15H11.25C12.415 15 12.9975 15 13.4567 14.81C13.7601 14.6844 14.0358 14.5002 14.268 14.268C14.5002 14.0358 14.6844 13.7601 14.81 13.4567C15 12.9975 15 12.415 15 11.25V7.5C15 5.51088 14.2098 3.60322 12.8033 2.1967C11.3968 0.790176 9.48912 0 7.5 0ZM4.16667 6.66667C4.16667 6.44565 4.25446 6.23369 4.41074 6.07741C4.56702 5.92113 4.77899 5.83333 5 5.83333H10C10.221 5.83333 10.433 5.92113 10.5893 6.07741C10.7455 6.23369 10.8333 6.44565 10.8333 6.66667C10.8333 6.88768 10.7455 7.09964 10.5893 7.25592C10.433 7.4122 10.221 7.5 10 7.5H5C4.77899 7.5 4.56702 7.4122 4.41074 7.25592C4.25446 7.09964 4.16667 6.88768 4.16667 6.66667ZM6.66667 10C6.66667 9.77899 6.75446 9.56702 6.91074 9.41074C7.06702 9.25446 7.27899 9.16667 7.5 9.16667H10C10.221 9.16667 10.433 9.25446 10.5893 9.41074C10.7455 9.56702 10.8333 9.77899 10.8333 10C10.8333 10.221 10.7455 10.433 10.5893 10.5893C10.433 10.7455 10.221 10.8333 10 10.8333H7.5C7.27899 10.8333 7.06702 10.7455 6.91074 10.5893C6.75446 10.433 6.66667 10.221 6.66667 10Z" fill="#B0BABF"/>
</svg>
