<svg width="16" height="16" viewBox="0 0 16 16" fill="none" xmlns="http://www.w3.org/2000/svg">
<path fill-rule="evenodd" clip-rule="evenodd" d="M4.35995 0.183723C5.39703 -0.0835033 6.48779 -0.0588008 7.51171 0.255102C8.53563 0.569004 9.45285 1.15989 10.162 1.96246C10.8712 2.76503 11.3447 3.74805 11.5303 4.8029C11.7158 5.85776 11.6061 6.94337 11.2134 7.9398L15.0293 11.1702C15.3187 11.4148 15.5542 11.7168 15.7208 12.0571C15.8875 12.3974 15.9818 12.7686 15.9976 13.1472C16.0135 13.5258 15.9505 13.9036 15.8129 14.2566C15.6752 14.6096 15.4658 14.9303 15.1978 15.1982C14.9299 15.4661 14.6092 15.6755 14.2562 15.8131C13.9032 15.9507 13.5254 16.0135 13.1469 15.9976C12.7683 15.9817 12.3971 15.8873 12.0569 15.7206C11.7167 15.5538 11.4148 15.3182 11.1703 15.0287L7.94183 11.2142C6.94537 11.6076 5.85954 11.7177 4.80438 11.5325C3.74922 11.3472 2.76584 10.8737 1.96297 10.1644C1.1601 9.45505 0.569005 8.53748 0.255048 7.51312C-0.0589094 6.48877 -0.0835025 5.39753 0.183988 4.36007C0.221704 4.2143 0.297992 4.08138 0.404832 3.97529C0.511673 3.8692 0.64512 3.79385 0.791144 3.75717C0.937169 3.72049 1.09038 3.72383 1.23466 3.76685C1.37895 3.80986 1.50899 3.89095 1.6111 4.0016L4.13758 6.74573L6.04344 6.04455L6.74621 4.13603L4.00068 1.61346C3.88938 1.51137 3.80773 1.38109 3.76437 1.23641C3.72102 1.09173 3.71756 0.938022 3.75437 0.791537C3.79118 0.645053 3.86688 0.511239 3.97348 0.404247C4.08008 0.297255 4.21361 0.221061 4.35995 0.183723Z" fill="#B0BABF"/>
</svg>
